# xmcd CD database file
# Copyright (C) 1993-1998 Ti Kan
# 
# Track frame offsets:
#     182
#     16022
#     33500
#     55627
#     101347
#     138832
#     157757
#     175052
#     227312
#     242697
#     264855
#     283315
#     304750
#     325052
# 
# Disc length: 4650 seconds
# 
# Revision: 1
# Processed by: cddbd v1.4b41PL1 Copyright (c) Steve Scherf et al.
# Submitted via: DiscPlay 4.0.4
# 
DISCID=9f12280e
DTITLE=Stevie Ray Vaughan And Double Trouble - Rarities In Concert
DYEAR=1900
DGENRE=
TTITLE0=Testify
TTITLE1=Testify
TTITLE2=Pride And Joy
TTITLE3=Texas Flood
TTITLE4=Little Wing
TTITLE5=3rd Stone From The Sun
TTITLE6=Trouble
TTITLE7=Voodoo Chile
TTITLE8=Mary Had A Little Lamb
TTITLE9=Couln't Stand The Weather
TTITLE10=I'm Cryin'
TTITLE11=Say What
TTITLE12=Superstition
TTITLE13=Willie The Wimp
EXTD=
EXTT0=
EXTT1=
EXTT2=
EXTT3=
EXTT4=
EXTT5=
EXTT6=
EXTT7=
EXTT8=
EXTT9=
EXTT10=
EXTT11=
EXTT12=
EXTT13=
PLAYORDER=
